<svg xmlns="http://www.w3.org/2000/svg" viewBox="0 0 512 512"><rect width="512" height="512" rx="100" fill="#215c4a"/><circle cx="256" cy="255" r="166" fill="#f7db75"/><path d="M252 385c-11-104 4-191 22-262 19 73 22 165 7 262z" fill="#70491f"/><path d="M274 129c-57-49-116-35-145-7 61-8 97 12 126 43-57-12-103 8-127 40 62-22 102-8 137 17 22-62 22-66 9-93z" fill="#2f855a"/><path d="M278 132c48-52 107-44 139-19-60-2-95 23-120 57 54-18 102-3 129 26-63-15-101 4-133 33-29-58-29-63-15-97z" fill="#3a9b65"/></svg>